<?xml version="1.0" encoding="UTF-8"?>
<svg width="179px" height="24px" viewBox="0 0 179 24" version="1.1" xmlns="http://www.w3.org/2000/svg" xmlns:xlink="http://www.w3.org/1999/xlink">
    <!-- Generator: sketchtool 58 (101010) - https://sketch.com -->
    <title>9F2B4AEF-5BC1-41EE-8315-DD436A618944</title>
    <desc>Created with sketchtool.</desc>
    <defs>
        <rect id="path-1" x="0.375067751" y="0" width="39.6747967" height="24" rx="1.8"></rect>
        <path d="M9.94281035,24 L38.2498645,24 C39.243977,24 40.0498645,23.1941125 40.0498645,22.2 L40.0498645,13.4792274 L40.0498645,13.4792274 C40.0498645,13.4792274 29.4168341,20.7471987 9.94281035,24 Z" id="path-3"></path>
    </defs>
    <g id="Page-1" stroke="none" stroke-width="1" fill="none" fill-rule="evenodd">
        <g id="BD-&gt;-Campaign-Wizard-&gt;-How-will-Klickly-Charge-you-&gt;-CC-&gt;-1.0" transform="translate(-458.000000, -597.000000)">
            <g id="card-logos" transform="translate(458.000000, 597.000000)">
                <g id="disc-light" transform="translate(92.000000, 0.000000)">
                    <g id="orange">
                        <mask id="mask-2" fill="white">
                            <use xlink:href="#path-1"></use>
                        </mask>
                        <rect stroke="#E7E7E7" stroke-width="0.8" x="0.775067751" y="0.4" width="38.8747967" height="23.2" rx="1.8"></rect>
                        <mask id="mask-4" fill="white">
                            <use xlink:href="#path-3"></use>
                        </mask>
                        <use id="Mask" fill="#E6772F" xlink:href="#path-3"></use>
                    </g>
                    <path d="M7.63102604,11.928806 C7.33318199,12.1855638 6.95402297,12.2978391 6.34770423,12.2978391 L6.09611273,12.2978391 L6.09611273,9.23383882 L6.34770423,9.23383882 C6.95402297,9.23383882 7.31863481,9.33855713 7.63102604,9.60808984 C7.95348839,9.88661897 8.1472642,10.3162879 8.1472642,10.760711 C8.1472642,11.2072932 7.95348839,11.6522561 7.63102604,11.928806 L7.63102604,11.928806 Z M6.53551197,8.44899125 L5.15893905,8.44899125 L5.15893905,13.0830466 L6.52711937,13.0830466 C7.25522406,13.0830466 7.78078733,12.9158931 8.24144782,12.5470399 C8.78864535,12.1101738 9.11334572,11.4505564 9.11334572,10.7671884 C9.11334572,9.399193 8.05401309,8.44899125 6.53551197,8.44899125 L6.53551197,8.44899125 Z" id="Fill-13" fill="#1A1919"></path>
                    <polygon id="Fill-14" fill="#1A1919" points="9.54547138 8.44899125 10.478915 8.44899125 10.478915 13.0830466 9.54547138 13.0830466"></polygon>
                    <path d="M12.7712139,10.2250642 C12.2077906,10.0257036 12.0431092,9.89291646 12.0431092,9.64245616 C12.0431092,9.35133205 12.3374097,9.13055993 12.7421195,9.13055993 C13.0226189,9.13055993 13.2536951,9.23887681 13.4998781,9.50355145 L13.9872084,8.88675698 C13.5845501,8.54489307 13.1026283,8.37180197 12.5772515,8.37180197 C11.7271744,8.37180197 11.0792657,8.94235485 11.0792657,9.69679453 C11.0792657,10.3373395 11.3804668,10.6622902 12.2594518,10.9708674 C12.6268611,11.0941183 12.8135499,11.1783248 12.9081065,11.2353621 C13.0953547,11.3521356 13.1886058,11.519469 13.1886058,11.712892 C13.1886058,12.0898419 12.8790121,12.3669316 12.4605012,12.3669316 C12.0149473,12.3669316 11.6544385,12.1517373 11.4386555,11.7476182 L10.8347613,12.3118735 C11.2665139,12.9221906 11.7840576,13.194962 12.4970556,13.194962 C13.4694782,13.194962 14.1546874,12.566832 14.1546874,11.6722282 C14.1546874,10.9350616 13.8368876,10.6009346 12.7712139,10.2250642" id="Fill-15" fill="#1A1919"></path>
                    <path d="M14.4489879,10.7671884 C14.4489879,12.129966 15.5577436,13.1859656 16.9850451,13.1859656 C17.3875169,13.1859656 17.732546,13.1093161 18.1573981,12.9158931 L18.1573981,11.850897 C17.7819691,12.2148921 17.4524197,12.358475 17.0260756,12.358475 C16.0829339,12.358475 15.4148829,11.7001171 15.4148829,10.760711 C15.4148829,9.87312434 16.1045681,9.16996425 16.9850451,9.16996425 C17.4292934,9.16996425 17.7687275,9.32182379 18.1573981,9.69121675 L18.1573981,8.62748019 C17.7469067,8.42721991 17.4100837,8.34427293 17.0042549,8.34427293 C15.5851594,8.34427293 14.4489879,9.42096433 14.4489879,10.7671884" id="Fill-16" fill="#1A1919"></path>
                    <polyline id="Fill-17" fill="#1A1919" points="25.7465466 11.5601328 24.4656494 8.44899125 23.4443632 8.44899125 25.4805945 13.2 25.982845 13.2 28.0586147 8.44899125 27.0453481 8.44899125 25.7465466 11.5601328"></polyline>
                    <polyline id="Fill-18" fill="#1A1919" points="28.4836533 13.0830466 31.1400045 13.0830466 31.1400045 12.2978391 29.420827 12.2978391 29.420827 11.0469771 31.0747287 11.0469771 31.0747287 10.2619496 29.420827 10.2619496 29.420827 9.23383882 31.1400045 9.23383882 31.1400045 8.44899125 28.4836533 8.44899125 28.4836533 13.0830466"></polyline>
                    <path d="M32.9695913,10.579883 L32.6976711,10.579883 L32.6976711,9.17824095 L32.9848845,9.17824095 C33.5701285,9.17824095 33.8836387,9.41520662 33.8836387,9.86664692 C33.8836387,10.3305023 33.5701285,10.579883 32.9695913,10.579883 L32.9695913,10.579883 Z M34.8482282,9.81626697 C34.8482282,8.94847242 34.2312789,8.44899125 33.1497525,8.44899125 L31.7584459,8.44899125 L31.7584459,13.0830466 L32.6976711,13.0830466 L32.6976711,11.2198882 L32.819457,11.2198882 L34.113596,13.0830466 L35.2659932,13.0830466 L33.7547657,11.129924 C34.4610496,10.9906595 34.8482282,10.5253647 34.8482282,9.81626697 L34.8482282,9.81626697 Z" id="Fill-19" fill="#1A1919"></path>
                    <path d="M23.5764068,10.7779841 C23.5764068,12.112153 22.4559014,13.1935226 21.0724279,13.1935226 C19.6893274,13.1935226 18.5686355,12.112153 18.5686355,10.7779841 C18.5686355,9.44363531 19.6893274,8.36208584 21.0724279,8.36208584 C22.4559014,8.36208584 23.5764068,9.44363531 23.5764068,10.7779841" id="Fill-20" fill="#E6772F"></path>
                </g>
                <g id="amex-light" transform="translate(138.400000, 0.000000)">
                    <rect id="Rectangle" stroke="#E7E7E7" stroke-width="0.8" fill="#0072CE" x="0.4" y="0.4" width="38.8747967" height="23.2" rx="1.8"></rect>
                    <path d="M34.288449,15.9990467 C34.1016233,16.27366 33.73758,16.4128689 33.2447483,16.4128689 L31.7594594,16.4128689 L31.7594594,15.7191656 L33.238731,15.7191656 C33.3854742,15.7191656 33.4881555,15.6997524 33.5499779,15.6390741 C33.6035507,15.5890291 33.6409159,15.5163517 33.6409159,15.4280657 C33.6409159,15.333829 33.6035507,15.2590054 33.5469692,15.2141308 C33.4911641,15.1647687 33.4099313,15.1423314 33.2759991,15.1423314 C32.5538327,15.1176503 31.652896,15.1647687 31.652896,14.1410416 C31.652896,13.671809 31.9492938,13.1778953 32.756381,13.1778953 L34.288352,13.1778953 L34.288352,12.5342369 L32.8649825,12.5342369 C32.4354289,12.5342369 32.1234057,12.6376437 31.9024175,12.7984119 L31.9024175,12.5342369 L29.7970613,12.5342369 C29.4603868,12.5342369 29.0651897,12.618133 28.8782669,12.7984119 L28.8782669,12.5342369 L25.1186538,12.5342369 L25.1186538,12.7984119 C24.8194414,12.5814528 24.3145752,12.5342369 24.0815526,12.5342369 L21.6016714,12.5342369 L21.6016714,12.7984119 C21.3649608,12.5679904 20.838549,12.5342369 20.517694,12.5342369 L17.7422885,12.5342369 L17.1071781,13.2251112 L16.5123443,12.5342369 L12.3664629,12.5342369 L12.3664629,17.0482353 L16.4343143,17.0482353 L17.0887381,16.346435 L17.7052145,17.0482353 L20.2126585,17.050479 L20.2126585,15.9886085 L20.4591714,15.9886085 C20.7918668,15.9937788 21.1842494,15.9803165 21.530435,15.8298889 L21.530435,17.0481377 L23.5986202,17.0481377 L23.5986202,15.8716418 L23.69839,15.8716418 C23.8257226,15.8716418 23.8382424,15.8769097 23.8382424,16.0048024 L23.8382424,17.0480402 L30.121022,17.0480402 C30.5199071,17.0480402 30.9368439,16.9454138 31.1677314,16.7591841 L31.1677314,17.0480402 L33.1606039,17.0480402 C33.5753085,17.0480402 33.9803079,16.9896056 34.288449,16.8399584 L34.288449,15.9990467 L34.288449,15.9990467 Z M34.288449,13.8662332 L32.8867222,13.8662332 C32.7467728,13.8662332 32.6537966,13.8715011 32.5754754,13.9246678 C32.4943397,13.9770541 32.4630888,14.0548043 32.4630888,14.1574306 C32.4630888,14.2794701 32.5316078,14.3624882 32.6312805,14.3983879 C32.7124162,14.426776 32.7995692,14.435068 32.9276783,14.435068 L33.3445181,14.4462867 C33.7651429,14.4567249 34.0459153,14.5294023 34.2171156,14.7066572 C34.2482694,14.7313382 34.2670005,14.7590434 34.288449,14.7867486 L34.288449,13.8662332 Z M31.2205278,14.7066572 C31.3702796,14.8624502 31.4505419,15.0591182 31.4505419,15.3920685 C31.4505419,16.0880156 31.0179796,16.4128689 30.2423374,16.4128689 L28.7443347,16.4128689 L28.7443347,15.7191656 L30.2363202,15.7191656 C30.3821898,15.7191656 30.4856476,15.6997524 30.5504786,15.6390741 C30.6033721,15.5890291 30.6413195,15.5163517 30.6413195,15.4280657 C30.6413195,15.333829 30.6002664,15.2590054 30.5474699,15.2141308 C30.4886562,15.1647687 30.4075205,15.1423314 30.2735883,15.1423314 C29.5543334,15.1176503 28.6535908,15.1647687 28.6535908,14.1410416 C28.6535908,13.671809 28.9468829,13.1778953 29.7531937,13.1778953 L31.295064,13.1778953 L31.295064,13.8664283 L29.8842143,13.8664283 C29.7443619,13.8664283 29.6534239,13.8716962 29.5760732,13.9248629 C29.4918317,13.9772492 29.4605809,14.0549994 29.4605809,14.1576257 C29.4605809,14.2796652 29.5321085,14.3626833 29.6288696,14.398583 C29.7100054,14.4269711 29.7971584,14.4352632 29.928179,14.4352632 L30.3422043,14.4464818 C30.7597234,14.4567249 31.0463189,14.5293048 31.2205278,14.7066572 L31.2205278,14.7066572 Z M24.2805098,14.5068675 C24.1776344,14.5682287 24.0503988,14.5734965 23.9007441,14.5734965 L22.9664213,14.5734965 L22.9664213,13.8469176 L23.9134579,13.8469176 C24.0503988,13.8469176 24.1874367,13.8498442 24.2805098,13.9053522 C24.3801826,13.9577385 24.4397727,14.057926 24.4397727,14.1963545 C24.4397727,14.334783 24.3801826,14.4462867 24.2805098,14.5068675 L24.2805098,14.5068675 Z M24.7450023,14.909471 C24.9162026,14.9729784 25.0561521,15.0868234 25.1217594,15.1810601 C25.230361,15.3389993 25.2460835,15.4864028 25.2491891,15.7715518 L25.2491891,16.4128689 L24.4770408,16.4128689 L24.4770408,16.0081192 C24.4770408,15.8134999 24.4956749,15.5253266 24.3527168,15.3748991 C24.2403302,15.2590054 24.0690328,15.2313002 23.7884545,15.2313002 L22.9665184,15.2313002 L22.9665184,16.4128689 L22.1936907,16.4128689 L22.1936907,13.1777977 L23.9693601,13.1777977 C24.358734,13.1777977 24.6423209,13.1950647 24.894754,13.3304691 C25.1374819,13.4778725 25.2901452,13.6798084 25.2901452,14.0488535 C25.2900482,14.5652045 24.9474535,14.8286967 24.7450023,14.909471 L24.7450023,14.909471 Z M25.7165932,13.1777977 L28.2835302,13.1777977 L28.2835302,13.8468201 L26.4825302,13.8468201 L26.4825302,14.4349705 L28.2395655,14.4349705 L28.2395655,15.0950179 L26.4825302,15.0950179 L26.4825302,15.7386763 L28.2835302,15.7416029 L28.2835302,16.4128689 L25.7165932,16.4128689 L25.7165932,13.1777977 L25.7165932,13.1777977 Z M20.5274963,14.6707575 L19.5335833,14.6707575 L19.5335833,13.8469176 L20.5364251,13.8469176 C20.8140918,13.8469176 21.0068377,13.9606651 21.0068377,14.2435704 C21.0068377,14.523354 20.8230206,14.6707575 20.5274963,14.6707575 L20.5274963,14.6707575 Z M18.7675493,16.1186474 L17.5867136,14.8008939 L18.7675493,13.5249909 L18.7675493,16.1186474 L18.7675493,16.1186474 Z M15.7180681,15.7386763 L13.8271005,15.7386763 L13.8271005,15.0950179 L15.5156169,15.0950179 L15.5156169,14.4349705 L13.8271005,14.4349705 L13.8271005,13.8468201 L15.7553362,13.8468201 L16.5965857,14.7895777 L15.7180681,15.7386763 L15.7180681,15.7386763 Z M21.8325589,14.2435704 C21.8325589,15.1422338 21.1655183,15.3277807 20.4932368,15.3277807 L19.5335833,15.3277807 L19.5335833,16.4128689 L18.0386863,16.4128689 L17.0916497,15.341926 L16.107442,16.4128689 L13.0609694,16.4128689 L13.0609694,13.1777977 L16.1543183,13.1777977 L17.1005785,14.238205 L18.078866,13.1777977 L20.5364251,13.1777977 C21.1467872,13.1777977 21.8325589,13.3476385 21.8325589,14.2435704 L21.8325589,14.2435704 Z" id="EXPRESS" fill="#FFFFFF"></path>
                    <path d="M9.39151785,9.44969085 L8.86510601,8.16032543 L8.3417028,9.44969085 L9.39151785,9.44969085 Z M20.9883007,8.93626645 C20.8826107,9.00074936 20.7576073,9.00289554 20.6078556,9.00289554 L19.6735328,9.00289554 L19.6735328,8.28451111 L20.6205694,8.28451111 C20.7545987,8.28451111 20.8944511,8.29055943 20.9852921,8.34284814 C21.0850619,8.38996651 21.1467872,8.49025157 21.1467872,8.62877763 C21.1467872,8.77013274 21.0880705,8.88388019 20.9883007,8.93626645 L20.9883007,8.93626645 Z M27.6536606,9.44969085 L27.1214256,8.16032543 L26.5921022,9.44969085 L27.6536606,9.44969085 L27.6536606,9.44969085 Z M15.2290214,10.8452921 L14.4405682,10.8452921 L14.4376567,8.31221632 L13.3224284,10.8452921 L12.6471382,10.8452921 L11.5289984,8.30997259 L11.5289984,10.8452921 L9.9647089,10.8452921 L9.66918456,10.1238835 L8.06782112,10.1238835 L7.76928816,10.8452921 L6.93395875,10.8452921 L8.31122836,7.61100132 L9.45392249,7.61100132 L10.7619938,10.6732076 L10.7619938,7.61100132 L12.0172686,7.61100132 L13.0237983,9.80507847 L13.9484159,7.61100132 L15.2289243,7.61100132 L15.2289243,10.8452921 L15.2290214,10.8452921 Z M18.3714788,10.8452921 L15.8022124,10.8452921 L15.8022124,7.61100132 L18.3714788,7.61100132 L18.3714788,8.28451111 L16.5713521,8.28451111 L16.5713521,8.86749119 L18.3282905,8.86749119 L18.3282905,9.5304652 L16.5713521,9.5304652 L16.5713521,10.1763673 L18.3714788,10.1763673 L18.3714788,10.8452921 L18.3714788,10.8452921 Z M21.994054,8.48205707 C21.994054,8.9977252 21.6516534,9.26414397 21.4521138,9.34413789 C21.6204025,9.40852324 21.764137,9.5222707 21.8325589,9.61650744 C21.9411605,9.77737326 21.9598916,9.92106966 21.9598916,10.2099258 L21.9598916,10.8452921 L21.1841523,10.8452921 L21.1812407,10.4374207 C21.1812407,10.2428013 21.1997777,9.96292013 21.0598283,9.8073222 C20.9474417,9.69357475 20.7761443,9.6688937 20.499254,9.6688937 L19.6736299,9.6688937 L19.6736299,10.8452921 L18.9045872,10.8452921 L18.9045872,7.61100132 L20.67356,7.61100132 C21.0666219,7.61100132 21.3562261,7.62143955 21.6048742,7.76591638 C21.8481844,7.9103932 21.994054,8.121304 21.994054,8.48205707 L21.994054,8.48205707 Z M23.2248717,10.8452921 L22.4401065,10.8452921 L22.4401065,7.61100132 L23.2248717,7.61100132 L23.2248717,10.8452921 L23.2248717,10.8452921 Z M32.3291566,10.8452921 L31.2392589,10.8452921 L29.7814359,8.41776928 L29.7814359,10.8452921 L28.2151083,10.8452921 L27.915799,10.1238835 L26.3181235,10.1238835 L26.0277429,10.8452921 L25.1277767,10.8452921 C24.7539311,10.8452921 24.2806069,10.7621765 24.0125484,10.4875632 C23.7422576,10.2129499 23.6016288,9.84097818 23.6016288,9.25282776 C23.6016288,8.7731569 23.6856761,8.33465364 24.0162364,7.98814339 C24.2648844,7.73001667 24.6542584,7.61100132 25.1842611,7.61100132 L25.9288466,7.61100132 L25.9288466,8.30402182 L25.1998866,8.30402182 C24.9192112,8.30402182 24.7607248,8.34596985 24.6080615,8.49561702 C24.4769438,8.63180179 24.3869762,8.88924564 24.3869762,9.22824426 C24.3869762,9.57475451 24.4554952,9.82458918 24.5984533,9.98779629 C24.7168571,10.1157866 24.9320221,10.1546129 25.1344733,10.1546129 L25.4798825,10.1546129 L26.56386,7.61109888 L27.7162594,7.61109888 L29.0184105,10.670281 L29.0184105,7.61109888 L30.1894439,7.61109888 L31.5413828,9.86361061 L31.5413828,7.61109888 L32.3291566,7.61109888 L32.3291566,10.8452921 L32.3291566,10.8452921 Z M6.92502994,11.4805609 L8.23911848,11.4805609 L8.53541925,10.7621765 L9.19877192,10.7621765 L9.49429626,11.4805609 L12.0798674,11.4805609 L12.0798674,10.9313343 L12.3106578,11.4829022 L13.6528915,11.4829022 L13.883682,10.9231398 L13.883682,11.4805609 L20.3093226,11.4805609 L20.306314,10.3013334 L20.430638,10.3013334 C20.517694,10.3043576 20.5431217,10.3124545 20.5431217,10.4569314 L20.5431217,11.4805609 L23.8664846,11.4805609 L23.8664846,11.2060452 C24.1345431,11.3504244 24.5514799,11.4805609 25.1001168,11.4805609 L26.4982526,11.4805609 L26.797465,10.7621765 L27.4608176,10.7621765 L27.7534304,11.4805609 L30.4477001,11.4805609 L30.4477001,10.7981737 L30.8557081,11.4805609 L33.0147343,11.4805609 L33.0147343,6.96968421 L30.8780302,6.96968421 L30.8780302,7.50242421 L30.5788178,6.96968421 L28.3863087,6.96968421 L28.3863087,7.50242421 L28.1115535,6.96968421 L25.1500017,6.96968421 C24.6542584,6.96968421 24.2184934,7.0392399 23.8664846,7.23307883 L23.8664846,6.96968421 L21.8227566,6.96968421 L21.8227566,7.23307883 C21.5987599,7.03328913 21.2935303,6.96968421 20.9541383,6.96968421 L13.4876114,6.96968421 L12.9866273,8.13476639 L12.4721529,6.96968421 L10.1203808,6.96968421 L10.1203808,7.50242421 L9.86202754,6.96968421 L7.85634409,6.96968421 L6.92493289,9.11439926 L6.92493289,11.4805609 L6.92502994,11.4805609 Z" id="AMERICAN" fill="#FFFFFF"></path>
                </g>
                <g id="mc-light" transform="translate(45.600000, 0.000000)">
                    <rect id="Rectangle" stroke="#E7E7E7" stroke-width="0.8" fill="#FFFFFF" x="0.824932249" y="0.4" width="38.8747967" height="23.2" rx="1.8"></rect>
                    <path d="M22.6938485,12.1941609 C22.6938485,16.5054631 19.2276001,20 14.9514715,20 C10.6752205,20 7.20872737,16.5054631 7.20872737,12.1941609 C7.20872737,7.88298197 10.6752205,4.388075 14.9514715,4.388075 C19.2276001,4.388075 22.6938485,7.88298197 22.6938485,12.1941609" id="Fill-333" fill="#CC0000"></path>
                    <path d="M25.3463012,4.388075 C23.3452766,4.388075 21.5226483,5.15327594 20.1483357,6.40858544 C19.8687502,6.6644337 19.607763,6.94075969 19.3668423,7.23497286 L20.9311751,7.23497286 C21.1448103,7.49723583 21.3416825,7.77294502 21.5214248,8.06173035 L18.7764703,8.06173035 C18.6122673,8.32707732 18.4629919,8.60278651 18.330357,8.88848784 L21.9672933,8.88848784 C22.0916079,9.15605529 22.2009949,9.43164112 22.2952098,9.71487526 L18.0024406,9.71487526 C17.91312,9.98404638 17.8377482,10.2598789 17.7775486,10.5411393 L22.519857,10.5411393 C22.6334042,11.0740537 22.6938485,11.6269524 22.6938485,12.1941609 C22.6938485,13.0607636 22.5537499,13.8949227 22.2952098,14.6739399 L18.0024406,14.6739399 C18.0966554,14.9569273 18.2060424,15.2328832 18.3301123,15.5008208 L21.9672933,15.5008208 C21.8344137,15.7857819 21.6858724,16.0617378 21.5206906,16.3274549 L18.7764703,16.3274549 C18.9554784,16.6153767 19.1527177,16.891456 19.3668423,17.1533489 L20.9306857,17.1533489 C20.6902544,17.4478087 20.4290224,17.7241347 20.1485804,17.979983 C21.5227707,19.2352925 23.3452766,20 25.3463012,20 C29.6223075,20 33.0886782,16.5054631 33.0886782,12.1941609 C33.0886782,7.88335205 29.6223075,4.388075 25.3463012,4.388075" id="Fill-334" fill="#FF9900"></path>
                    <path d="M13.1434037,13.0487977 C13.0551844,13.0386822 13.0162749,13.0354748 12.9557082,13.0354748 C12.4792505,13.0354748 12.2383298,13.2002835 12.2383298,13.5258301 C12.2383298,13.7262898 12.3559147,13.8537205 12.5394501,13.8537205 C12.881927,13.8537205 13.1287209,13.5250899 13.1434037,13.0487977 L13.1434037,13.0487977 Z M13.7548211,14.4835957 L13.0581209,14.4835957 L13.0741497,14.1499074 C12.8617381,14.413404 12.5782372,14.539231 12.1931801,14.539231 C11.7377677,14.539231 11.4253906,14.1807474 11.4253906,13.6597988 C11.4253906,12.8756005 11.9685328,12.4183056 12.9010147,12.4183056 C12.9965754,12.4183056 13.1186876,12.4271876 13.2437363,12.443101 C13.269676,12.3367648 13.276528,12.2916151 13.276528,12.2342528 C13.276528,12.021087 13.1301891,11.9411499 12.7375459,11.9411499 C12.3263044,11.9369556 11.9871311,12.0402078 11.8477666,12.0863444 C11.8565763,12.0328062 11.9643727,11.3620989 11.9643727,11.3620989 C12.383078,11.2379989 12.6593598,11.1916156 12.9702687,11.1916156 C13.6921743,11.1916156 14.0745396,11.5182724 14.0736831,12.1358117 C14.0751514,12.3014839 14.0478658,12.505151 14.0056527,12.7738286 C13.932728,13.2401287 13.7761112,14.2402068 13.7548211,14.4835957 L13.7548211,14.4835957 Z" id="Fill-336" fill="#000066"></path>
                    <polyline id="Fill-337" fill="#000066" points="11.0736145 14.4835957 10.2329003 14.4835957 10.7147417 11.4400623 9.63934702 14.4835957 9.06659441 14.4835957 8.99574977 11.457086 8.48968167 14.4835957 7.70292686 14.4835957 8.36010572 10.5241157 9.56886945 10.5241157 9.64191652 12.7403981 10.3793615 10.5241157 11.7236967 10.5241157 11.0736145 14.4835957"></polyline>
                    <path d="M26.3848665,13.0487977 C26.2966472,13.0386822 26.2582271,13.0354748 26.1977828,13.0354748 C25.720958,13.0354748 25.480282,13.2002835 25.480282,13.5258301 C25.480282,13.7262898 25.5973775,13.8537205 25.7814023,13.8537205 C26.1236345,13.8537205 26.3705507,13.5250899 26.3848665,13.0487977 L26.3848665,13.0487977 Z M26.996651,14.4835957 L26.3001955,14.4835957 L26.3159796,14.1499074 C26.103568,14.413404 25.8201894,14.539231 25.435377,14.539231 C24.9793529,14.539231 24.6673428,14.1807474 24.6673428,13.6597988 C24.6673428,12.8756005 25.2107298,12.4183056 26.1429669,12.4183056 C26.2384053,12.4183056 26.3602728,12.4271876 26.4854439,12.443101 C26.5115059,12.3367648 26.5182355,12.2916151 26.5182355,12.2342528 C26.5182355,12.021087 26.3718967,11.9411499 25.9792534,11.9411499 C25.5680119,11.9369556 25.2289609,12.0402078 25.089107,12.0863444 C25.0984061,12.0328062 25.2064473,11.3620989 25.2064473,11.3620989 C25.6249078,11.2379989 25.9014344,11.1916156 26.2118539,11.1916156 C26.9342489,11.1916156 27.3161248,11.5182724 27.3153907,12.1358117 C27.3168589,12.3014839 27.2898181,12.505151 27.2473602,12.7738286 C27.1746802,13.2401287 27.0176963,14.2402068 26.996651,14.4835957 L26.996651,14.4835957 Z" id="Fill-338" fill="#000066"></path>
                    <path d="M17.490377,14.4346219 C17.2602237,14.5076509 17.0809708,14.539231 16.8864234,14.539231 C16.4568283,14.539231 16.2222702,14.2902909 16.2222702,13.8317624 C16.2162747,13.6894052 16.2840604,13.3150082 16.337408,12.9735482 C16.386106,12.6726736 16.7020315,10.7761398 16.7020315,10.7761398 L17.537362,10.7761398 L17.4398436,11.2635344 L17.9445658,11.2635344 L17.8306515,12.0374939 L17.3242163,12.0374939 C17.2271873,12.6497287 17.0888017,13.4125858 17.087211,13.5137408 C17.087211,13.6797831 17.1750633,13.7523187 17.3751168,13.7523187 C17.4709222,13.7523187 17.5450705,13.7424499 17.6017217,13.7219722 L17.490377,14.4346219" id="Fill-339" fill="#000066"></path>
                    <path d="M20.0520409,14.4085929 C19.7649916,14.4970419 19.4883427,14.5402179 19.1948085,14.539231 C18.25939,14.5379974 17.7717978,14.0457917 17.7717978,13.1027059 C17.7717978,12.0020896 18.3920249,11.1916156 19.2342074,11.1916156 C19.9229543,11.1916156 20.3630721,11.645333 20.3630721,12.3566257 C20.3630721,12.5931065 20.3329723,12.8235426 20.2599252,13.1487191 L18.5961162,13.1487191 C18.5399544,13.6158828 18.8363028,13.8104212 19.3226714,13.8104212 C19.6213446,13.8104212 19.8912639,13.7482478 20.1911606,13.6079877 L20.0520409,14.4085929 L20.0520409,14.4085929 Z M19.5824351,12.4997231 C19.587207,12.432492 19.6708991,11.9248664 19.1933402,11.9248664 C18.927581,11.9248664 18.7370713,12.129397 18.6598641,12.4997231 L19.5824351,12.4997231 L19.5824351,12.4997231 Z" id="Fill-340" fill="#000066"></path>
                    <path d="M14.2589315,12.281623 C14.2589315,12.688587 14.4547025,12.9694773 14.898858,13.180546 C15.2391325,13.342024 15.2921131,13.3897642 15.2921131,13.5359456 C15.2921131,13.7364053 15.1418588,13.8274448 14.8094151,13.8274448 C14.5584611,13.8274448 14.3252489,13.787723 14.0561861,13.7000141 C14.0561861,13.7000141 13.9459425,14.4100733 13.9406812,14.4439972 C14.1316803,14.4856928 14.3020011,14.5245512 14.8154106,14.539231 C15.7022534,14.539231 16.1119042,14.1987579 16.1119042,13.4629166 C16.1119042,13.0205483 15.9406046,12.7608759 15.5194522,12.5654739 C15.1671867,12.4025156 15.1264418,12.3660011 15.1264418,12.2157488 C15.1264418,12.0416881 15.2662958,11.9527457 15.5378057,11.9527457 C15.7028651,11.9527457 15.9281242,11.9705095 16.1418817,12.0009794 L16.2614244,11.2541591 C16.0438738,11.2192482 15.7137549,11.1916156 15.5216546,11.1916156 C14.5814642,11.1916156 14.2558725,11.6866586 14.2589315,12.281623" id="Fill-341" fill="#000066"></path>
                    <path d="M24.140107,11.2766105 C24.3735639,11.2766105 24.5916039,11.337797 24.8912559,11.4903931 L25.0289074,10.6310686 C24.905327,10.5822181 24.4720612,10.2959 24.1049905,10.2959 C23.5426383,10.2959 23.06667,10.5776538 22.7325133,11.0416101 C22.244554,10.8787751 22.0437663,11.2078991 21.7980737,11.5360362 L21.5796667,11.5873539 C21.5961848,11.4794141 21.6112347,11.3722144 21.6064628,11.2635344 L20.8341461,11.2635344 C20.7289192,12.2604051 20.5420802,13.2697351 20.3958637,14.2669759 L20.357566,14.4835957 L21.1985249,14.4835957 C21.3388683,13.5640716 21.4155861,12.9755219 21.4623264,12.576823 L21.778986,12.399925 C21.8265829,12.2221635 21.9742676,12.1624574 22.2713502,12.1697356 C22.232563,12.379694 22.2115176,12.6008782 22.2115176,12.8297106 C22.2115176,13.8833268 22.7760723,14.539231 23.6805345,14.539231 C23.9136244,14.539231 24.1138002,14.508391 24.4237302,14.4232728 L24.5710479,13.5210191 C24.2923189,13.6590587 24.0641233,13.7240693 23.8572178,13.7240693 C23.3685244,13.7240693 23.0727878,13.3602812 23.0727878,12.7593955 C23.0727878,11.887365 23.5122938,11.2766105 24.140107,11.2766105" id="Fill-342" fill="#000066"></path>
                    <path d="M31.2566285,10.5241157 L31.0697895,11.6680312 C30.8403704,11.3632091 30.5934541,11.1423951 30.2674954,11.1423951 C29.8434064,11.1423951 29.4573704,11.4665847 29.2045811,11.9439872 C28.8525603,11.8703413 28.4887933,11.7451311 28.4887933,11.7451311 L28.4885485,11.7482151 C28.5165683,11.4813878 28.5284369,11.3190463 28.5256227,11.2635344 L27.7534283,11.2635344 C27.6485685,12.2604051 27.4614848,13.2697351 27.3153907,14.2669759 L27.2767259,14.4835957 L28.1179295,14.4835957 C28.2314767,13.7404762 28.3182277,13.1226902 28.3822204,12.6334452 C28.6697591,12.3714289 28.8136508,12.1435833 29.1035143,12.1583865 C28.9749172,12.4719672 28.8999124,12.832918 28.8999124,13.2032442 C28.8999124,14.0079202 29.3034454,14.539231 29.9147405,14.539231 C30.2228351,14.539231 30.4592286,14.4320313 30.689749,14.1838313 L30.6501054,14.483349 L31.4454252,14.483349 L32.0857188,10.5241157 L31.2566285,10.5241157 L31.2566285,10.5241157 Z M30.2054604,13.739736 C29.91939,13.739736 29.7745195,13.5258301 29.7745195,13.1049264 C29.7745195,12.4719672 30.0452953,12.0233075 30.426437,12.0233075 C30.7153216,12.0233075 30.8719384,12.2448617 30.8719384,12.6539229 C30.8719384,13.29231 30.5966354,13.739736 30.2054604,13.739736 L30.2054604,13.739736 Z" id="Fill-343" fill="#000066"></path>
                    <polyline id="Fill-344" fill="#FFFFFF" points="11.3153917 14.2485953 10.4749222 14.2485953 10.9566413 11.2050618 9.88149131 14.2485953 9.30849399 14.2485953 9.23777171 11.2227023 8.73158124 14.2485953 7.94482643 14.2485953 8.6020053 10.2894853 9.81076903 10.2894853 9.84453953 12.7403981 10.6601706 10.2894853 11.9655962 10.2894853 11.3153917 14.2485953"></polyline>
                    <path d="M13.3853033,12.8142907 C13.2972063,12.8039284 13.2582968,12.8010912 13.1977301,12.8010912 C12.7212724,12.8010912 12.4802293,12.9656532 12.4802293,13.290953 C12.4802293,13.491166 12.5979367,13.6193368 12.7815944,13.6193368 C13.1239489,13.6193368 13.3707428,13.2907063 13.3853033,12.8142907 L13.3853033,12.8142907 Z M13.9965983,14.2485953 L13.3002652,14.2485953 L13.3161716,13.9151537 C13.1037601,14.1785269 12.8202591,14.3044772 12.435202,14.3044772 C11.9796673,14.3044772 11.6674125,13.9455002 11.6674125,13.424675 C11.6674125,12.6403533 12.2106771,12.1836753 13.143159,12.1836753 C13.238475,12.1836753 13.3605872,12.1924338 13.4857583,12.2087173 C13.5116979,12.1021344 13.5185499,12.0568614 13.5185499,11.9992523 C13.5185499,11.7862099 13.3722111,11.7068896 12.9795678,11.7068896 C12.5682039,11.7019552 12.229153,11.8052074 12.0896661,11.8512206 C12.0985982,11.7979291 12.2062723,11.1272218 12.2062723,11.1272218 C12.6250999,11.0033685 12.9013818,10.9566152 13.2122906,10.9566152 C13.9340739,10.9566152 14.3163169,11.2836421 14.3157051,11.9009346 C14.317051,12.0663601 14.2900101,12.271014 14.2476746,12.5389515 C14.1746276,13.0048816 14.0180107,14.0055764 13.9965983,14.2485953 L13.9965983,14.2485953 Z" id="Fill-345" fill="#FFFFFF"></path>
                    <path d="M25.2706846,10.3960682 L25.1330331,11.2552693 C24.8328917,11.1031666 24.6154635,11.0416101 24.3822513,11.0416101 C23.7546828,11.0416101 23.3144427,11.6531047 23.3144427,12.5252586 C23.3144427,13.1261443 23.6103016,13.4891922 24.0989951,13.4891922 C24.3060229,13.4891922 24.5347079,13.424675 24.8128252,13.286142 L24.6651404,14.1883957 C24.3556998,14.2733906 24.1554016,14.3044772 23.9224341,14.3044772 C23.0173601,14.3044772 22.4536619,13.6484497 22.4536619,12.5950803 C22.4536619,11.1796497 23.232953,10.1904274 24.3468901,10.1904274 C24.7139608,10.1904274 25.1474713,10.3472177 25.2706846,10.3960682" id="Fill-346" fill="#FFFFFF"></path>
                    <path d="M26.6266437,12.8142907 C26.5390362,12.8039284 26.5000043,12.8010912 26.43956,12.8010912 C25.963347,12.8010912 25.7221816,12.9656532 25.7221816,13.290953 C25.7221816,13.491166 25.8397666,13.6193368 26.0233019,13.6193368 C26.3655341,13.6193368 26.6125727,13.2907063 26.6266437,12.8142907 L26.6266437,12.8142907 Z M27.2384282,14.2485953 L26.5420951,14.2485953 L26.5578791,13.9151537 C26.3454676,14.1785269 26.0619667,14.3044772 25.6772766,14.3044772 C25.2212525,14.3044772 24.9093647,13.9455002 24.9093647,13.424675 C24.9093647,12.6403533 25.4521399,12.1836753 26.3848665,12.1836753 C26.4801825,12.1836753 26.60205,12.1924338 26.7270987,12.2087173 C26.7531607,12.1021344 26.7600127,12.0568614 26.7600127,11.9992523 C26.7600127,11.7862099 26.614041,11.7068896 26.221153,11.7068896 C25.8101562,11.7019552 25.4712276,11.8052074 25.331496,11.8512206 C25.3403057,11.7979291 25.4481021,11.1272218 25.4481021,11.1272218 C25.8669298,11.0033685 26.1429669,10.9566152 26.4538758,10.9566152 C27.1756591,10.9566152 27.5582691,11.2836421 27.5572902,11.9009346 C27.5590032,12.0663601 27.5317176,12.271014 27.4893822,12.5389515 C27.4165798,13.0048816 27.259963,14.0055764 27.2384282,14.2485953 L27.2384282,14.2485953 Z" id="Fill-347" fill="#FFFFFF"></path>
                    <path d="M17.7321542,14.1997448 C17.5022456,14.2727738 17.322748,14.3044772 17.1284453,14.3044772 C16.6987279,14.3044772 16.4640474,14.0554138 16.4640474,13.5973788 C16.4581742,13.4545281 16.5260823,13.0807479 16.5795523,12.7389178 C16.6278832,12.4377965 16.9439311,10.5415094 16.9439311,10.5415094 L17.7795063,10.5415094 L17.6817432,11.0287807 L18.1107264,11.0287807 L17.9964451,11.8024934 L17.5661159,11.8024934 C17.4690869,12.415345 17.3307012,13.1777087 17.3289882,13.2788637 C17.3289882,13.4453995 17.4172076,13.5174416 17.6170164,13.5174416 C17.7128218,13.5174416 17.7868477,13.5079429 17.8437437,13.4869717 L17.7321542,14.1997448" id="Fill-348" fill="#FFFFFF"></path>
                    <path d="M20.2943075,14.1742093 C20.0071359,14.262905 19.7298752,14.304724 19.4367081,14.3044772 C18.5011673,14.3038604 18.0139421,13.811038 18.0139421,12.8680755 C18.0139421,11.7670892 18.6340468,10.9566152 19.4756175,10.9566152 C20.1650986,10.9566152 20.6049717,11.4103326 20.6049717,12.1224888 C20.6049717,12.3584761 20.5743824,12.5887889 20.5021919,12.9140888 L18.8381381,12.9140888 C18.7817316,13.3812524 19.0784471,13.5761609 19.5643263,13.5761609 C19.8632442,13.5761609 20.1330411,13.5137408 20.4333049,13.3731106 L20.2943075,14.1742093 L20.2943075,14.1742093 Z M19.8245794,12.2647227 C19.8291066,12.1973682 19.9131658,11.6899893 19.4357292,11.6899893 C19.1697253,11.6899893 18.9792156,11.8948899 18.9017637,12.2647227 L19.8245794,12.2647227 L19.8245794,12.2647227 Z" id="Fill-349" fill="#FFFFFF"></path>
                    <path d="M14.5007087,12.0466225 C14.5007087,12.4543267 14.6967244,12.7346002 15.1410023,12.9459156 C15.4812768,13.1072702 15.5340126,13.1550105 15.5340126,13.3013152 C15.5340126,13.5020216 15.3838807,13.5925677 15.0511923,13.5925677 C14.8004831,13.5925677 14.5671485,13.5533393 14.2979633,13.4658772 C14.2979633,13.4658772 14.1878421,14.1754429 14.1827031,14.2088734 C14.3735799,14.2510624 14.544023,14.2895507 15.0571878,14.3044772 C15.9442753,14.3044772 16.3539262,13.9641275 16.3539262,13.2282862 C16.3539262,12.7856712 16.1823818,12.5261221 15.7613517,12.3312136 C15.4089639,12.1677619 15.3684638,12.1316174 15.3684638,11.9811185 C15.3684638,11.8070578 15.5081953,11.7174985 15.77995,11.7174985 C15.9446424,11.7174985 16.1701461,11.7360025 16.3837812,11.766349 L16.5034463,11.019652 C16.2857734,10.9849879 15.9558992,10.9566152 15.7636765,10.9566152 C14.8232415,10.9566152 14.4978945,11.4517815 14.5007087,12.0466225" id="Fill-350" fill="#FFFFFF"></path>
                    <path d="M31.6873248,14.2485953 L30.8922497,14.2485953 L30.9316486,13.9489543 C30.7010059,14.1972776 30.4647347,14.3044772 30.15664,14.3044772 C29.5458344,14.3044772 29.1416896,13.7737833 29.1416896,12.9682437 C29.1416896,11.8972338 29.7682793,10.9944866 30.509395,10.9944866 C30.8353537,10.9944866 31.0821476,11.1287021 31.3120562,11.4336476 L31.4985281,10.2894853 L32.327496,10.2894853 L31.6873248,14.2485953 L31.6873248,14.2485953 Z M30.4472377,13.5046122 C30.8389021,13.5046122 31.1137157,13.0574329 31.1137157,12.4196626 C31.1137157,12.0104781 30.9572212,11.7881837 30.6683366,11.7881837 C30.2870725,11.7881837 30.016419,12.2369667 30.016419,12.8701727 C30.016419,13.2915698 30.161412,13.5046122 30.4472377,13.5046122 L30.4472377,13.5046122 Z" id="Fill-351" fill="#FFFFFF"></path>
                    <path d="M27.9955726,11.0287807 C27.8904681,12.0254046 27.7035067,13.0347347 27.5572902,14.0320988 L27.5189925,14.2485953 L28.3597067,14.2485953 C28.66046,12.2795259 28.7327729,11.89526 29.2045811,11.943247 C29.2795858,11.5402305 29.4194398,11.187298 29.5235655,11.0094132 C29.1715447,10.9353973 28.9749172,11.1359803 28.7172336,11.5171622 C28.7377895,11.3522301 28.7748637,11.1922324 28.7678893,11.0287807 L27.9955726,11.0287807" id="Fill-352" fill="#FFFFFF"></path>
                    <path d="M21.0764128,11.0287807 C20.9708188,12.0254046 20.7836127,13.0347347 20.6376409,14.0320988 L20.5994656,14.2485953 L21.4404245,14.2485953 C21.7413001,12.2795259 21.8133683,11.89526 22.2844424,11.943247 C22.3599366,11.5402305 22.5000352,11.187298 22.6039162,11.0094132 C22.2522625,10.9353973 22.0552679,11.1359803 21.7980737,11.5171622 C21.8183849,11.3522301 21.8557038,11.1922324 21.8483624,11.0287807 L21.0764128,11.0287807" id="Fill-353" fill="#FFFFFF"></path>
                </g>
                <g id="visa-light">
                    <rect id="Rectangle" stroke="#E7E7E7" stroke-width="0.8" fill="#FFFFFF" x="0.4" y="0.4" width="38.8747967" height="23.2" rx="1.8"></rect>
                    <polyline id="Fill-1" fill="#26337A" points="15.6610695 15.8187042 16.8809653 8.18907042 18.8309249 8.18907042 17.6111406 15.8187042 15.6610695 15.8187042"></polyline>
                    <path d="M24.684261,8.37633803 C24.2987079,8.22321127 23.6923289,8.05622535 22.9369482,8.05622535 C21.0090712,8.05622535 19.6519957,9.09160563 19.6407314,10.5741972 C19.6284633,11.6708732 20.609131,12.2824789 21.3484516,12.6469859 C22.1082935,13.0206197 22.3635816,13.2597183 22.3605703,13.5938028 C22.3553285,14.1047887 21.7540798,14.3389296 21.1934274,14.3389296 C20.4127298,14.3389296 19.9979563,14.223662 19.356669,13.9388169 L19.105842,13.8173521 L18.8331554,15.5251831 C19.287856,15.7376901 20.1307864,15.9221408 21.0056138,15.931831 C23.054499,15.931831 24.3858115,14.9089577 24.4014254,13.3257465 C24.4084517,12.4561127 23.8888417,11.7969577 22.7635218,11.2527324 C22.0820843,10.8989296 21.6638535,10.6645634 21.6686492,10.3064789 C21.6690953,9.98940845 22.0219706,9.64991549 22.7857159,9.64991549 C23.4235459,9.6395493 23.8852728,9.78805634 24.2450628,9.94309859 L24.4201622,10.0303099 L24.684261,8.37633803" id="Fill-2" fill="#26337A"></path>
                    <path d="M27.2807497,13.1136901 C27.4423541,12.6751549 28.0575439,10.9810704 28.0575439,10.9810704 C28.046168,11.0012394 28.218256,10.5391549 28.3167355,10.2531831 L28.4483388,10.9112113 C28.4483388,10.9112113 28.822516,12.7322817 28.899582,13.1136901 L27.2807497,13.1136901 L27.2807497,13.1136901 Z M29.6864137,8.19684507 L28.1794442,8.19684507 C27.7120294,8.19684507 27.3621653,8.33183099 27.1573995,8.82929577 L24.261569,15.8214085 L26.3096734,15.8214085 C26.3096734,15.8214085 26.643812,14.8807887 26.7196512,14.6743662 C26.9430423,14.6743662 28.933152,14.6783099 29.2172144,14.6783099 C29.2756552,14.9445634 29.454658,15.8214085 29.454658,15.8214085 L31.2645381,15.8214085 L29.6864137,8.19684507 L29.6864137,8.19684507 Z" id="Fill-3" fill="#26337A"></path>
                    <path d="M14.0251734,8.19549296 L12.1165908,13.3970704 L11.9121596,12.3397183 C11.556496,11.1214648 10.4493553,9.80101408 9.21094583,9.13938028 L10.9570318,15.8120563 L13.0207502,15.8108169 L16.0915685,8.19549296 L14.0251734,8.19549296" id="Fill-4" fill="#26337A"></path>
                    <path d="M10.3448534,8.19030986 L7.20031489,8.19030986 L7.17444034,8.34839437 C9.62125819,8.98039437 11.240202,10.5059155 11.9121596,12.3397183 L11.2288261,8.83402817 C11.1109408,8.35053521 10.768326,8.20721127 10.3448534,8.19030986" id="Fill-5" fill="#EC982D"></path>
                </g>
            </g>
        </g>
    </g>
</svg>